<svg width="88" height="23" viewBox="0 0 88 23" fill="none" xmlns="http://www.w3.org/2000/svg">
<path d="M7.532 22.336C9.30533 22.336 10.7333 21.8973 11.816 21.02C12.8987 20.1427 13.44 18.9947 13.44 17.576C13.44 16.4747 13.104 15.5507 12.432 14.804C11.76 14.0387 10.7893 13.4693 9.52 13.096L7.084 12.368C5.98267 12.0507 5.432 11.5933 5.432 10.996C5.432 10.604 5.58133 10.296 5.88 10.072C6.19733 9.848 6.62667 9.736 7.168 9.736C7.91467 9.736 8.57733 9.932 9.156 10.324C9.75333 10.6973 10.164 11.2013 10.388 11.836L13.496 10.38C13.0293 9.11067 12.2267 8.13067 11.088 7.44C9.968 6.73067 8.66133 6.376 7.168 6.376C6.02933 6.376 5.02133 6.58133 4.144 6.992C3.26667 7.384 2.58533 7.93467 2.1 8.644C1.61467 9.35333 1.372 10.184 1.372 11.136C1.372 12.2187 1.708 13.1613 2.38 13.964C3.052 14.748 4.01333 15.3173 5.264 15.672L7.868 16.4C8.876 16.68 9.38 17.128 9.38 17.744C9.38 18.6587 8.764 19.116 7.532 19.116C6.71067 19.116 5.964 18.8827 5.292 18.416C4.62 17.9493 4.088 17.3053 3.696 16.484L0.616 17.94C1.064 19.284 1.904 20.3573 3.136 21.16C4.38667 21.944 5.852 22.336 7.532 22.336ZM15.9502 22H20.1502V17.324L21.8302 15.476L25.7222 22H30.4822L24.9662 12.872L30.5102 6.712H25.3302L20.1502 12.228V0.803999H15.9502V22ZM32.3564 5.34H36.5564V1.14H32.3564V5.34ZM32.3564 22H36.5564V6.712H32.3564V22ZM39.6298 22H43.8298V0.803999H39.6298V22ZM46.9033 22H51.1033V0.803999H46.9033V22ZM61.5407 22.336C63.1087 22.336 64.4807 22 65.6567 21.328C66.8327 20.6373 67.6541 19.732 68.1207 18.612L64.7607 17.016C64.4621 17.5387 64.0421 17.9493 63.5007 18.248C62.9781 18.5467 62.3434 18.696 61.5967 18.696C60.5701 18.696 59.7301 18.4067 59.0767 17.828C58.4234 17.2493 58.0407 16.484 57.9287 15.532H68.6247C68.6994 15.3267 68.7461 15.084 68.7647 14.804C68.8021 14.5053 68.8207 14.2067 68.8207 13.908C68.8207 12.4893 68.5221 11.22 67.9247 10.1C67.3461 8.96133 66.4967 8.056 65.3767 7.384C64.2567 6.712 62.8847 6.376 61.2607 6.376C59.8047 6.376 58.4981 6.72133 57.3407 7.412C56.1834 8.10267 55.2594 9.04533 54.5687 10.24C53.8967 11.4347 53.5607 12.7973 53.5607 14.328C53.5607 15.8027 53.8874 17.1467 54.5407 18.36C55.1941 19.5733 56.1181 20.544 57.3127 21.272C58.5074 21.9813 59.9167 22.336 61.5407 22.336ZM61.2607 9.736C62.1194 9.736 62.8287 9.988 63.3887 10.492C63.9487 10.996 64.2754 11.6493 64.3687 12.452H58.0127C58.2181 11.5747 58.6007 10.9027 59.1607 10.436C59.7394 9.96933 60.4394 9.736 61.2607 9.736ZM78.4899 22.336C79.4232 22.336 80.2912 22.1867 81.0939 21.888C81.9152 21.5707 82.5966 21.1227 83.1379 20.544V22H87.0579V0.803999H82.8579V8C81.7752 6.91733 80.3099 6.376 78.4619 6.376C77.0059 6.376 75.6899 6.73067 74.5139 7.44C73.3379 8.14933 72.4046 9.11067 71.7139 10.324C71.0232 11.5187 70.6779 12.8627 70.6779 14.356C70.6779 15.8307 71.0139 17.1747 71.6859 18.388C72.3766 19.6013 73.3099 20.5627 74.4859 21.272C75.6619 21.9813 76.9966 22.336 78.4899 22.336ZM78.9939 18.556C77.8366 18.556 76.8846 18.164 76.1379 17.38C75.3912 16.596 75.0179 15.588 75.0179 14.356C75.0179 13.1427 75.3912 12.144 76.1379 11.36C76.8846 10.5573 77.8366 10.156 78.9939 10.156C80.1326 10.156 81.0566 10.548 81.7659 11.332C82.4939 12.116 82.8579 13.124 82.8579 14.356C82.8579 15.6067 82.4939 16.624 81.7659 17.408C81.0566 18.1733 80.1326 18.556 78.9939 18.556Z" fill="#13183F"/>
</svg>
